# xmcd
#
# Track frame offsets:
#	150
#	14210
#	28535
#	46500
#	58805
#	72867
#	85240
#	102040
#	117601
#	128175
#
# Disc length: 1942 seconds
#
# Revision: 1
# Processed by: cddbd v1.5.1PL0 Copyright (c) Steve Scherf et al.
# Submitted via: audiograbber 1.83.01
#
DISCID=8507940a
DTITLE=Larry Jon Wilson - Let Me Sing My Song To You
DYEAR=1976
DGENRE=Country
TTITLE0=Drowning In The Mainstream
TTITLE1=Let Me Sing My Song To You
TTITLE2=Sheldon Churchyard
TTITLE3=I Remember It Well
TTITLE4=The Ballad of Handy Mackey
TTITLE5=Think I Feel A Hitchhike Coming On
TTITLE6=Willoughby Grove
TTITLE7=Life of A Good Man
TTITLE8=Kindred Spirit
TTITLE9=Farther Along
EXTD=
EXTT0=
EXTT1=
EXTT2=
EXTT3=
EXTT4=
EXTT5=
EXTT6=
EXTT7=
EXTT8=
EXTT9=
PLAYORDER=
